<?xml version="1.0"?>
<svg xmlns="http://www.w3.org/2000/svg" width="159" height="30" viewBox="0 0 159 30" fill="none">
<path d="M56.3415 0C61.9078 0 66.766 3.03201 69.3546 7.53456C69.5031 7.79287 69.8872 7.79287 70.0357 7.53456C72.6243 3.03201 77.4824 0 83.0488 0H96.9512C97.5574 0 98.0488 0.491395 98.0488 1.09756V7.97682C98.0488 8.37041 98.6274 8.5064 98.826 8.16661C101.682 3.28165 106.982 5.03266e-07 113.049 0H143.78C152.065 0 158.78 6.71573 158.78 15C158.78 23.2843 152.065 30 143.78 30H97.6829C97.0768 30 96.5854 29.5086 96.5854 28.9024V23.0806C96.5854 22.6912 96.0176 22.5513 95.8126 22.8825C93.1691 27.1541 88.4414 30 83.0488 30C77.4823 30 72.6243 26.9678 70.0357 22.4651C69.8872 22.2068 69.5031 22.2068 69.3546 22.4651C66.766 26.9678 61.9079 30 56.3415 30H15C6.71573 30 0 23.2843 0 15C0 6.71573 6.71573 0 15 0H56.3415Z" fill="#1E1E1E"/>
<path d="M11.7752 21.1462V9.53953H13.3393V21.1462H11.7752ZM12.1539 16.2237V14.9231H18.4265V16.2237H12.1539ZM12.1539 10.8566V9.53953H19.1179V10.8566H12.1539ZM19.6696 21.1462V12.931H21.0854V14.3468H21.1677C21.2665 13.9737 21.4421 13.6664 21.6946 13.4249C21.958 13.1725 22.2653 12.9859 22.6165 12.8651C22.9787 12.7444 23.3464 12.684 23.7196 12.684C23.7415 12.684 23.7635 12.684 23.7854 12.684C23.8184 12.684 23.8458 12.684 23.8677 12.684V14.1164C23.8458 14.1164 23.8129 14.1164 23.769 14.1164C23.736 14.1164 23.7031 14.1164 23.6702 14.1164C23.1982 14.1164 22.7702 14.2097 22.386 14.3962C22.0129 14.5718 21.711 14.8627 21.4806 15.2688C21.2501 15.6639 21.1348 16.1962 21.1348 16.8658V21.1462H19.6696ZM25.1887 21.1462V12.931H26.6539V21.1462H25.1887ZM25.1722 11.5975V9.12795H26.6704V11.5975H25.1722ZM32.1351 21.3932C31.3448 21.3932 30.6589 21.2121 30.0772 20.8499C29.5064 20.4877 29.0729 19.9773 28.7765 19.3188C28.4802 18.6493 28.332 17.892 28.332 17.0468C28.332 16.1798 28.4857 15.4225 28.793 14.7749C29.1113 14.1164 29.5503 13.606 30.1101 13.2438C30.6698 12.8706 31.3174 12.684 32.0528 12.684C32.7442 12.684 33.3589 12.8542 33.8967 13.1944C34.4454 13.5237 34.868 13.9901 35.1644 14.5938C35.4717 15.1975 35.6253 15.9164 35.6253 16.7505C35.6253 16.8712 35.6198 16.992 35.6089 17.1127C35.5979 17.2334 35.5869 17.3158 35.5759 17.3597H28.9247V16.2895H34.6046L34.193 16.4706C34.193 15.8889 34.0942 15.406 33.8967 15.0218C33.7101 14.6377 33.4576 14.3523 33.1393 14.1658C32.832 13.9682 32.4808 13.8694 32.0857 13.8694C31.6467 13.8694 31.257 13.9847 30.9168 14.2151C30.5765 14.4456 30.3076 14.7529 30.1101 15.1371C29.9235 15.5212 29.8302 15.9548 29.8302 16.4377V17.2609C29.8302 18.1609 30.0333 18.8743 30.4393 19.4011C30.8454 19.9279 31.4272 20.1914 32.1845 20.1914C32.6454 20.1914 33.0625 20.0706 33.4357 19.8292C33.8089 19.5767 34.0668 19.2255 34.2095 18.7755L35.4936 19.1542C35.2631 19.8676 34.857 20.4218 34.2753 20.817C33.6936 21.2011 32.9802 21.3932 32.1351 21.3932ZM37.3202 21.1462V12.931H38.7195V14.034H38.7854C38.9391 13.6389 39.2299 13.3151 39.658 13.0627C40.086 12.8103 40.5854 12.684 41.1561 12.684C42.0781 12.684 42.786 12.9475 43.2799 13.4743C43.7738 14.0011 44.0208 14.7639 44.0208 15.7627V21.1462H42.5555V15.9603C42.5555 15.3237 42.4019 14.8298 42.0945 14.4786C41.7872 14.1273 41.3372 13.9517 40.7445 13.9517C40.1519 13.9517 39.6744 14.1548 39.3122 14.5609C38.961 14.967 38.7854 15.5158 38.7854 16.2072V21.1462H37.3202ZM49.1954 21.3932C48.493 21.3932 47.8729 21.2066 47.3351 20.8334C46.8082 20.4603 46.4021 19.9499 46.1168 19.3023C45.8314 18.6438 45.6887 17.881 45.6887 17.0139C45.6887 16.1578 45.8314 15.406 46.1168 14.7584C46.4021 14.0999 46.8082 13.5895 47.3351 13.2273C47.8729 12.8651 48.4985 12.684 49.2119 12.684C49.7716 12.684 50.271 12.8158 50.7101 13.0792C51.1601 13.3426 51.4619 13.6938 51.6155 14.1328H51.6979V9.25965H53.1631V21.1462H51.7637V19.9279H51.7143C51.5936 20.2133 51.407 20.4712 51.1546 20.7017C50.9021 20.9212 50.6113 21.0914 50.282 21.2121C49.9527 21.3328 49.5905 21.3932 49.1954 21.3932ZM49.4753 20.1584C49.9582 20.1584 50.3698 20.0377 50.7101 19.7962C51.0613 19.5438 51.3302 19.1871 51.5168 18.7261C51.7033 18.2542 51.7966 17.6889 51.7966 17.0304C51.7966 16.0316 51.5881 15.2633 51.171 14.7255C50.7649 14.1877 50.1997 13.9188 49.4753 13.9188C48.7838 13.9188 48.2296 14.1877 47.8125 14.7255C47.4064 15.2633 47.2033 16.0316 47.2033 17.0304C47.2033 17.6889 47.2966 18.2542 47.4832 18.7261C47.6698 19.1871 47.9277 19.5438 48.257 19.7962C48.5973 20.0377 49.0033 20.1584 49.4753 20.1584ZM58.1344 21.3767C57.5198 21.3767 56.9765 21.2889 56.5045 21.1133C56.0326 20.9267 55.6484 20.6578 55.3521 20.3066C55.0667 19.9444 54.8801 19.5164 54.7923 19.0225L56.307 18.7426C56.4167 19.2145 56.6308 19.5767 56.949 19.8292C57.2673 20.0706 57.6844 20.1914 58.2003 20.1914C58.76 20.1914 59.1716 20.0542 59.435 19.7798C59.7094 19.5054 59.8466 19.1871 59.8466 18.8249C59.8466 18.5176 59.7533 18.2761 59.5667 18.1005C59.3801 17.9249 59.0948 17.8042 58.7106 17.7383L57.2289 17.4914C56.5375 17.3706 56.0051 17.1237 55.632 16.7505C55.2698 16.3664 55.0887 15.867 55.0887 15.2523C55.0887 14.7475 55.2149 14.3029 55.4673 13.9188C55.7198 13.5237 56.0765 13.2218 56.5375 13.0133C56.9984 12.7938 57.5417 12.684 58.1673 12.684C58.749 12.684 59.2594 12.7773 59.6984 12.9639C60.1375 13.1395 60.4942 13.392 60.7686 13.7212C61.043 14.0395 61.2131 14.4237 61.2789 14.8737L59.7972 15.1206C59.7094 14.7036 59.5283 14.3908 59.2539 14.1822C58.9795 13.9737 58.6009 13.8694 58.118 13.8694C57.6131 13.8694 57.2234 13.9847 56.949 14.2151C56.6856 14.4347 56.5539 14.7475 56.5539 15.1536C56.5539 15.4609 56.6472 15.7023 56.8338 15.8779C57.0314 16.0426 57.3277 16.1688 57.7228 16.2566L59.3527 16.5365C59.9893 16.6572 60.4722 16.9042 60.8015 17.2773C61.1417 17.6505 61.3119 18.1444 61.3119 18.759C61.3119 19.2529 61.1856 19.7029 60.9332 20.109C60.6917 20.5042 60.3295 20.817 59.8466 21.0475C59.3747 21.267 58.8039 21.3767 58.1344 21.3767Z" fill="#F5F5F5"/>
<path d="M108.36 21.1462V9.53953H109.924V21.1462H108.36ZM108.739 16.2237V14.9231H115.011V16.2237H108.739ZM108.739 10.8566V9.53953H115.703V10.8566H108.739ZM116.994 21.1462V12.931H118.459V21.1462H116.994ZM116.978 11.5975V9.12795H118.476V11.5975H116.978ZM123.909 24.1097C122.943 24.1097 122.164 23.9066 121.571 23.5005C120.989 23.1054 120.611 22.5621 120.435 21.8706L121.867 21.5578C121.977 21.9859 122.202 22.3206 122.542 22.5621C122.893 22.8036 123.354 22.9243 123.925 22.9243C124.606 22.9243 125.122 22.7542 125.473 22.4139C125.835 22.0847 126.016 21.5304 126.016 20.7511V19.3682H125.934C125.769 19.8292 125.478 20.1914 125.061 20.4548C124.655 20.7182 124.178 20.8499 123.629 20.8499C122.948 20.8499 122.345 20.6853 121.818 20.356C121.291 20.0158 120.879 19.5383 120.583 18.9237C120.298 18.309 120.155 17.5901 120.155 16.767C120.155 15.9438 120.303 15.2304 120.6 14.6267C120.896 14.0121 121.302 13.5347 121.818 13.1944C122.345 12.8542 122.959 12.684 123.662 12.684C124.2 12.684 124.672 12.8103 125.078 13.0627C125.495 13.3042 125.802 13.6609 126 14.1328H126.065V12.931H127.465V20.7511C127.465 21.5084 127.322 22.134 127.037 22.6279C126.751 23.1328 126.34 23.506 125.802 23.7475C125.275 23.9889 124.644 24.1097 123.909 24.1097ZM123.843 19.6151C124.523 19.6151 125.067 19.3572 125.473 18.8414C125.89 18.3255 126.098 17.634 126.098 16.767C126.098 15.9109 125.89 15.2249 125.473 14.709C125.056 14.1822 124.512 13.9188 123.843 13.9188C123.184 13.9188 122.658 14.1822 122.262 14.709C121.867 15.2249 121.67 15.9109 121.67 16.767C121.67 17.634 121.867 18.3255 122.262 18.8414C122.668 19.3572 123.195 19.6151 123.843 19.6151ZM129.672 21.1462V12.931H131.072V13.9682H131.137C131.258 13.584 131.522 13.2767 131.928 13.0462C132.334 12.8048 132.789 12.684 133.294 12.684C133.832 12.684 134.298 12.7993 134.694 13.0298C135.089 13.2493 135.341 13.5676 135.451 13.9847H135.533C135.687 13.5786 135.967 13.2603 136.373 13.0298C136.79 12.7993 137.267 12.684 137.805 12.684C138.617 12.684 139.237 12.931 139.666 13.4249C140.105 13.9188 140.324 14.6158 140.324 15.5158V21.1462H138.859V15.6804C138.859 15.1316 138.733 14.709 138.48 14.4127C138.239 14.1054 137.876 13.9517 137.394 13.9517C136.867 13.9517 136.461 14.1328 136.175 14.495C135.89 14.8462 135.747 15.3621 135.747 16.0426V21.1462H134.282V15.6804C134.282 15.1097 134.156 14.6816 133.903 14.3962C133.662 14.0999 133.3 13.9517 132.817 13.9517C132.29 13.9517 131.878 14.1328 131.582 14.495C131.286 14.8462 131.137 15.3621 131.137 16.0426V21.1462H129.672ZM144.731 21.3932C144.204 21.3932 143.726 21.2889 143.298 21.0804C142.881 20.8718 142.552 20.5865 142.311 20.2243C142.069 19.8621 141.948 19.445 141.948 18.9731C141.948 18.3475 142.146 17.8371 142.541 17.442C142.936 17.0468 143.501 16.7779 144.237 16.6353L146.114 16.2401C146.487 16.1743 146.75 16.0645 146.904 15.9109C147.069 15.7462 147.151 15.5048 147.151 15.1865L147.348 17.0304L144.648 17.6066C144.242 17.6834 143.935 17.8371 143.726 18.0676C143.518 18.2981 143.414 18.5889 143.414 18.9401C143.414 19.3353 143.556 19.6481 143.842 19.8786C144.138 20.109 144.522 20.2243 144.994 20.2243C145.389 20.2243 145.751 20.1365 146.081 19.9609C146.421 19.7743 146.684 19.5164 146.871 19.1871C147.058 18.8578 147.151 18.4956 147.151 18.1005V15.1865C147.151 14.7914 146.997 14.4786 146.69 14.2481C146.394 14.0066 145.987 13.8859 145.472 13.8859C144.923 13.8859 144.489 14.0231 144.171 14.2975C143.853 14.5609 143.655 14.9286 143.578 15.4005L142.162 15.2359C142.25 14.709 142.437 14.2536 142.722 13.8694C143.019 13.4853 143.403 13.1944 143.875 12.9968C144.347 12.7883 144.895 12.684 145.521 12.684C146.465 12.684 147.217 12.9255 147.776 13.4084C148.336 13.8914 148.616 14.5225 148.616 15.3017V21.1462H147.217V20.0267H147.134C146.981 20.4438 146.69 20.7786 146.262 21.031C145.834 21.2725 145.323 21.3932 144.731 21.3932Z" fill="#F5F5F5"/>
<path d="M80.7733 21.3932C80.0269 21.3932 79.3629 21.2176 78.7812 20.8664C78.2105 20.5042 77.755 19.9938 77.4147 19.3353C77.0855 18.6767 76.9208 17.9084 76.9208 17.0304C76.9208 16.1414 77.0855 15.3731 77.4147 14.7255C77.755 14.0779 78.2105 13.5786 78.7812 13.2273C79.3629 12.8651 80.0269 12.684 80.7733 12.684C81.5086 12.684 82.1672 12.8651 82.7489 13.2273C83.3306 13.5786 83.7861 14.0779 84.1153 14.7255C84.4556 15.3731 84.6257 16.1414 84.6257 17.0304C84.6257 17.9084 84.4556 18.6767 84.1153 19.3353C83.7861 19.9938 83.3306 20.5042 82.7489 20.8664C82.1781 21.2176 81.5196 21.3932 80.7733 21.3932ZM80.7897 20.1749C81.2397 20.1749 81.6403 20.0487 81.9916 19.7962C82.3428 19.5438 82.6117 19.1871 82.7983 18.7261C82.9958 18.2542 83.0946 17.6889 83.0946 17.0304C83.0946 16.3609 82.9958 15.7956 82.7983 15.3347C82.6007 14.8627 82.3263 14.506 81.9751 14.2645C81.6239 14.0231 81.2233 13.9023 80.7733 13.9023C80.3342 13.9023 79.9336 14.0231 79.5714 14.2645C79.2202 14.506 78.9403 14.8627 78.7318 15.3347C78.5342 15.7956 78.4355 16.3609 78.4355 17.0304C78.4355 17.6889 78.5397 18.2542 78.7483 18.7261C78.9568 19.1871 79.2312 19.5438 79.5714 19.7962C79.9227 20.0487 80.3288 20.1749 80.7897 20.1749ZM87.3489 21.1462V11.9761C87.3489 11.3944 87.4641 10.8895 87.6946 10.4615C87.9361 10.0225 88.2763 9.6877 88.7153 9.45721C89.1543 9.21575 89.6757 9.09502 90.2793 9.09502C90.4001 9.09502 90.5098 9.10051 90.6086 9.11148C90.7074 9.11148 90.7842 9.11697 90.8391 9.12795V10.3298C90.7842 10.3298 90.7293 10.3298 90.6745 10.3298C90.6306 10.3298 90.5592 10.3298 90.4604 10.3298C89.9336 10.3298 89.5275 10.467 89.2422 10.7414C88.9568 11.0158 88.8141 11.4328 88.8141 11.9926V21.1462H87.3489ZM85.4885 14.1164V12.931H90.8391V14.1164H85.4885Z" fill="#F5F5F5"/>
</svg>
