<svg xmlns="http://www.w3.org/2000/svg" viewBox="0 0 8290 980" width="1658" height="196" role="img" aria-label="Future of NYC Design">
<title>Future of NYC Design</title>
<g fill="#f0eaf5">
<g transform="scale(1.0219) translate(-104 -60)">
<path d="M943.6 649.784L534.128 797.035L905.934 832.327L943.6 649.784Z"/>
<path d="M729.751 928.467L379.817 761.744L586.375 1019.74L729.751 928.467Z"/>
<path d="M406.548 950.372L285.043 632.746L253.451 918.731L406.548 950.372Z"/>
<path d="M192.699 788.517L285.043 502.532L104 692.377L192.699 788.517Z"/>
<path d="M339.72 406.392L142.882 420.996V519.569L339.72 406.392Z"/>
<path d="M310.559 268.876L237.656 311.47L418.698 406.392L310.559 268.876Z"/>
<path d="M512.257 322.422L440.569 289.564L462.44 450.203L512.257 322.422Z"/>
<path d="M527.213 60L640.377 624.244L763.275 151.203L527.213 60Z"/>
<path d="M846.018 261.863L640.377 716.663L975 445.486L846.018 261.863Z"/>
</g>
<g transform="translate(1094 -60)">
<path transform="translate(0 900) scale(1 -1)" d="M41 700H332V600H151V405H293V305H151V0H41Z"/>
<path transform="translate(364 900) scale(1 -1)" d="M37 166V700H147V158Q147 122 161.5 106.0Q176 90 203 90Q230 90 244.5 106.0Q259 122 259 158V700H365V166Q365 81 323.0 35.5Q281 -10 201 -10Q121 -10 79.0 35.5Q37 81 37 166Z"/>
<path transform="translate(786 900) scale(1 -1)" d="M127 600H12V700H352V600H237V0H127Z"/>
<path transform="translate(1170 900) scale(1 -1)" d="M37 166V700H147V158Q147 122 161.5 106.0Q176 90 203 90Q230 90 244.5 106.0Q259 122 259 158V700H365V166Q365 81 323.0 35.5Q281 -10 201 -10Q121 -10 79.0 35.5Q37 81 37 166Z"/>
<path transform="translate(1592 900) scale(1 -1)" d="M41 700H204Q289 700 328.0 660.5Q367 621 367 539V496Q367 387 295 358V356Q335 344 351.5 307.0Q368 270 368 208V85Q368 55 370.0 36.5Q372 18 380 0H268Q262 17 260.0 32.0Q258 47 258 86V214Q258 262 242.5 281.0Q227 300 189 300H151V0H41ZM191 400Q224 400 240.5 417.0Q257 434 257 474V528Q257 566 243.5 583.0Q230 600 201 600H151V400Z"/>
<path transform="translate(2015 900) scale(1 -1)" d="M41 700H341V600H151V415H302V315H151V100H341V0H41Z"/>
<path transform="translate(2578 900) scale(1 -1)" d="M33 166V534Q33 618 76.0 664.0Q119 710 200 710Q281 710 324.0 664.0Q367 618 367 534V166Q367 82 324.0 36.0Q281 -10 200 -10Q119 -10 76.0 36.0Q33 82 33 166ZM257 159V541Q257 610 200 610Q143 610 143 541V159Q143 90 200 90Q257 90 257 159Z"/>
<path transform="translate(2998 900) scale(1 -1)" d="M41 700H332V600H151V405H293V305H151V0H41Z"/>
<path transform="translate(3542 900) scale(1 -1)" d="M41 700H179L286 281H288V700H386V0H273L141 511H139V0H41Z"/>
<path transform="translate(3989 900) scale(1 -1)" d="M142 298 9 700H126L201 443H203L278 700H385L252 298V0H142Z"/>
<path transform="translate(4403 900) scale(1 -1)" d="M34 162V538Q34 620 75.5 665.0Q117 710 196 710Q275 710 316.5 665.0Q358 620 358 538V464H254V545Q254 610 199 610Q144 610 144 545V154Q144 90 199 90Q254 90 254 154V261H358V162Q358 80 316.5 35.0Q275 -10 196 -10Q117 -10 75.5 35.0Q34 80 34 162Z"/>
<path transform="translate(4986 900) scale(1 -1)" d="M41 700H209Q291 700 332.0 656.0Q373 612 373 527V173Q373 88 332.0 44.0Q291 0 209 0H41ZM207 100Q234 100 248.5 116.0Q263 132 263 168V532Q263 568 248.5 584.0Q234 600 207 600H151V100Z"/>
<path transform="translate(5412 900) scale(1 -1)" d="M41 700H341V600H151V415H302V315H151V100H341V0H41Z"/>
<path transform="translate(5795 900) scale(1 -1)" d="M22 166V206H126V158Q126 90 183 90Q211 90 225.5 106.5Q240 123 240 160Q240 204 220.0 237.5Q200 271 146 318Q78 378 51.0 426.5Q24 475 24 536Q24 619 66.0 664.5Q108 710 188 710Q267 710 307.5 664.5Q348 619 348 534V505H244V541Q244 577 230.0 593.5Q216 610 189 610Q134 610 134 543Q134 505 154.5 472.0Q175 439 229 392Q298 332 324.0 283.0Q350 234 350 168Q350 82 307.5 36.0Q265 -10 184 -10Q104 -10 63.0 35.5Q22 81 22 166Z"/>
<path transform="translate(6187 900) scale(1 -1)" d="M41 700H151V0H41Z"/>
<path transform="translate(6399 900) scale(1 -1)" d="M33 166V534Q33 619 75.0 664.5Q117 710 197 710Q277 710 319.0 664.5Q361 619 361 534V474H257V541Q257 610 200 610Q143 610 143 541V158Q143 90 200 90Q257 90 257 158V295H202V395H361V166Q361 81 319.0 35.5Q277 -10 197 -10Q117 -10 75.0 35.5Q33 81 33 166Z"/>
<path transform="translate(6810 900) scale(1 -1)" d="M41 700H179L286 281H288V700H386V0H273L141 511H139V0H41Z"/>
</g>
</g>
</svg>
