<svg xmlns="http://www.w3.org/2000/svg" viewBox="0 0 216 48" fill="none">
  <path d="M38.9164 1.52348C41.6398 1.32394 44.2081 2.39375 45.6402 4.8267C47.3274 7.69364 46.2109 11.2875 45.0337 14.4112L43.4224 18.6842C42.0027 23.1845 42.0027 28.0296 43.4224 32.5299L43.705 33.422C45.0645 37.7312 43.4954 42.4446 39.8511 45.0015C37.0632 46.9572 33.4018 47.0021 30.5698 45.1143C28.6027 43.803 26.5303 42.4344 24.1669 42.3765C24.1501 42.3761 24.1326 42.3753 24.1158 42.375L24 42.3737C23.9448 42.374 23.8896 42.3752 23.8345 42.3765C21.471 42.4341 19.3988 43.8029 17.4317 45.1143C14.5996 47.0022 10.9384 46.9572 8.1504 45.0015C4.50576 42.4448 2.93689 37.7313 4.2964 33.422L4.57765 32.5299C5.99737 28.0295 5.99733 23.1845 4.57765 18.6842L2.96778 14.4112C1.79055 11.2875 0.672718 7.6937 2.35987 4.8267C3.79171 2.39388 6.36045 1.32415 9.0835 1.52348C11.8636 1.72721 14.2357 4.36337 15.5434 6.44975L15.624 6.55815C16.1763 7.30559 17.2751 7.2924 17.8097 6.53178C19.1096 4.47321 21.4358 3.00296 24 2.98247L24.1201 2.98394C26.6347 3.04526 28.9107 4.5053 30.1905 6.53178C30.725 7.29273 31.8252 7.30572 32.3775 6.55815L32.4565 6.44975C33.7642 4.36332 36.1363 1.72722 38.9164 1.52348ZM17.8931 16.0518C16.1639 16.0518 14.7614 18.7397 14.7612 22.0548C14.7612 25.3701 16.1639 28.0577 17.8931 28.0577C19.6221 28.0572 21.0234 25.3698 21.0234 22.0548C21.0234 18.74 19.6221 16.0523 17.8931 16.0518ZM30.1084 16.0518C28.3792 16.052 26.9781 18.7397 26.9781 22.0548C26.9781 25.37 28.3792 28.0575 30.1084 28.0577C31.8376 28.0577 33.2403 25.3701 33.2403 22.0548C33.2402 18.7397 31.8376 16.0518 30.1084 16.0518Z" fill="#ffffff"/>
  <text x="62" y="34"
        fill="#ffffff"
        font-family="Inter, -apple-system, BlinkMacSystemFont, 'Segoe UI', system-ui, sans-serif"
        font-size="34"
        font-weight="500"
        letter-spacing="-1.2">wonder</text>
</svg>
